<svg xmlns="http://www.w3.org/2000/svg" width="323.62" height="323.621" viewBox="0 0 323.62 323.621">
  <g id="icon5" transform="translate(-365.88 -244.7)">
    <rect id="Rectangle_1118" data-name="Rectangle 1118" width="150" height="150" rx="2" transform="translate(538 246.2)" fill="none" stroke="#1875d1" stroke-miterlimit="10" stroke-width="3"/>
    <path id="Path_268" data-name="Path 268" d="M1.6,0H148a1.6,1.6,0,0,1,1.6,1.6V148.8a1.6,1.6,0,0,1-1.6,1.6H1.6A1.6,1.6,0,0,1,0,148.8V1.6A1.6,1.6,0,0,1,1.6,0Z" transform="translate(368 340.244)" fill="none" stroke="#1875d1" stroke-width="3"/>
    <path id="Path_267" data-name="Path 267" d="M1.6,0H148a1.6,1.6,0,0,1,1.6,1.6V148a1.6,1.6,0,0,1-1.6,1.6H1.6A1.6,1.6,0,0,1,0,148V1.6A1.6,1.6,0,0,1,1.6,0Z" transform="translate(538.4 416.6)" fill="none" stroke="#1875d1" stroke-width="3"/>
    <rect id="Rectangle_1121" data-name="Rectangle 1121" width="106.215" height="106.217" rx="2" transform="matrix(0.707, -0.707, 0.707, 0.707, 368.001, 491.095)" fill="none" stroke="#e02730" stroke-miterlimit="10" stroke-width="3"/>
  </g>
</svg>
