<svg xmlns="http://www.w3.org/2000/svg" width="323.621" height="323.622" viewBox="0 0 323.621 323.622">
  <g id="icon6" transform="translate(-1103.879 -541.5)">
    <g id="Group_82" data-name="Group 82" transform="translate(1106 543)">
      <rect id="Rectangle_1106" data-name="Rectangle 1106" width="150" height="150" rx="2" transform="translate(170)" fill="none" stroke="#1875d1" stroke-miterlimit="10" stroke-width="3"/>
      <rect id="Rectangle_1107" data-name="Rectangle 1107" width="151.2" height="151.2" rx="2" transform="translate(74.754 94.046)" fill="none" stroke="#1875d1" stroke-miterlimit="10" stroke-width="3"/>
      <path id="Path_266" data-name="Path 266" d="M1.6,0H148.8a1.6,1.6,0,0,1,1.6,1.6V148.8a1.6,1.6,0,0,1-1.6,1.6H1.6A1.6,1.6,0,0,1,0,148.8V1.6A1.6,1.6,0,0,1,1.6,0Z" transform="translate(169.6 169.6)" fill="none" stroke="#1875d1" stroke-width="3"/>
      <rect id="Rectangle_1109" data-name="Rectangle 1109" width="106.117" height="106.119" rx="2" transform="matrix(0.707, -0.707, 0.707, 0.707, 0, 244.964)" fill="none" stroke="#d22e2e" stroke-miterlimit="10" stroke-width="3"/>
    </g>
  </g>
</svg>
