<svg id="logoEEUwhite" xmlns="http://www.w3.org/2000/svg" width="222.333" height="48.048" viewBox="0 0 222.333 48.048">
  <g id="Group_29" data-name="Group 29" transform="translate(56.633)">
    <path id="Path_232" data-name="Path 232" d="M182.119,68.339V47.8h11.206l.272,1.782h-9.092v7.37h7.1l.272,1.783h-7.37v7.7h9.7l.3,1.9Z" transform="translate(-182.119 -47.135)" fill="#fafafa"/>
    <path id="Path_233" data-name="Path 233" d="M215.591,68.339V47.8H226.8l.272,1.782h-9.092v7.37h7.1l.272,1.783h-7.37v7.7h9.7l.3,1.9Z" transform="translate(-199.794 -47.135)" fill="#fafafa"/>
    <path id="Path_234" data-name="Path 234" d="M250.808,47.8V60.787a6.094,6.094,0,0,0,1.48,4.259,5.047,5.047,0,0,0,3.927,1.631,4.989,4.989,0,0,0,3.926-1.631,6.171,6.171,0,0,0,1.45-4.259V47.8h2.416V61.059a8.1,8.1,0,0,1-.951,3.927,6.774,6.774,0,0,1-2.719,2.734,8.353,8.353,0,0,1-4.122.981,8.251,8.251,0,0,1-4.123-1,6.926,6.926,0,0,1-2.718-2.718,7.989,7.989,0,0,1-.951-3.927V47.8Z" transform="translate(-217.131 -47.135)" fill="#fafafa"/>
    <path id="Path_235" data-name="Path 235" d="M304.753,66.8l.574-1.873a12.924,12.924,0,0,0,2.341.861,10.159,10.159,0,0,0,2.7.377,6.171,6.171,0,0,0,3.64-.921,2.83,2.83,0,0,0,1.284-2.4,3,3,0,0,0-.6-1.857,5.673,5.673,0,0,0-1.737-1.45,31.806,31.806,0,0,0-3.1-1.5,12.109,12.109,0,0,1-4.123-2.628,4.924,4.924,0,0,1-1.314-3.473,4.57,4.57,0,0,1,.8-2.628,5.382,5.382,0,0,1,2.3-1.857,8.276,8.276,0,0,1,3.459-.68,11.03,11.03,0,0,1,2.824.362,12.048,12.048,0,0,1,2.431.906l-.815,1.842a15.455,15.455,0,0,0-2.039-.785,8.04,8.04,0,0,0-2.25-.272,5.554,5.554,0,0,0-3.187.816,2.594,2.594,0,0,0-1.193,2.265,2.971,2.971,0,0,0,.589,1.858,5.663,5.663,0,0,0,1.676,1.4q1.087.634,3.2,1.6a20.05,20.05,0,0,1,3.066,1.691,5.926,5.926,0,0,1,1.767,1.858,4.885,4.885,0,0,1,.6,2.492,4.665,4.665,0,0,1-.861,2.778,5.7,5.7,0,0,1-2.507,1.9,9.949,9.949,0,0,1-3.881.694,13.324,13.324,0,0,1-3.081-.423A8.339,8.339,0,0,1,304.753,66.8Z" transform="translate(-246.701 -46.594)" fill="#fafafa"/>
    <path id="Path_236" data-name="Path 236" d="M349.947,71.181a6.578,6.578,0,0,1-2.552,2.718,7.461,7.461,0,0,1-3.866.982,6.809,6.809,0,0,1-3.685-.982,6.331,6.331,0,0,1-2.4-2.749,9.365,9.365,0,0,1-.831-4.032,9.11,9.11,0,0,1,.891-3.972,6.444,6.444,0,0,1,2.492-2.718,7.244,7.244,0,0,1,3.806-.982,6.569,6.569,0,0,1,5.165,2.1,8.2,8.2,0,0,1,1.873,5.663A8.58,8.58,0,0,1,349.947,71.181Zm-2.854.091a6.383,6.383,0,0,0,1.3-4.032,6.724,6.724,0,0,0-1.208-4.183,4.04,4.04,0,0,0-3.413-1.586,4.174,4.174,0,0,0-3.443,1.586,6.382,6.382,0,0,0-1.3,4.032,6.736,6.736,0,0,0,1.208,4.168,4.025,4.025,0,0,0,3.413,1.6A4.175,4.175,0,0,0,347.093,71.272Z" transform="translate(-263.7 -53.286)" fill="#fafafa"/>
    <path id="Path_237" data-name="Path 237" d="M369.858,55l-.03-1.812h2.235v-2.3a4.712,4.712,0,0,1,1.1-3.278,3.843,3.843,0,0,1,3.006-1.223,4.975,4.975,0,0,1,1.208.151,4.388,4.388,0,0,1,1,.363l-.543,1.933a2.938,2.938,0,0,0-.635-.211,3.162,3.162,0,0,0-.694-.091q-2.055,0-2.054,2.507v2.145h2.688L377.922,55h-3.473V67.6h-2.387V55Z" transform="translate(-281.239 -46.392)" fill="#fafafa"/>
    <path id="Path_238" data-name="Path 238" d="M396.152,55.857l.785,1.812h-3.443v8.458a2.946,2.946,0,0,0,.513,1.842,1.858,1.858,0,0,0,1.571.664,3.665,3.665,0,0,0,1.329-.3l.543,1.872a5.183,5.183,0,0,1-2.235.513,4.06,4.06,0,0,1-3.005-1.1,4.267,4.267,0,0,1-1.1-3.156v-8.79h-2.115l-.03-1.812h2.145V52.111l2.386-.665v4.41Z" transform="translate(-291.344 -49.061)" fill="#fafafa"/>
    <path id="Path_239" data-name="Path 239" d="M422.077,74.421l-3.323-11.145-3.111,11.145h-2.326l-4.259-14.2,2.175-.906L414.5,71.008l3.081-11.236h2.416l3.262,11.236,3.081-11.236h2.416l-4.319,14.649Z" transform="translate(-301.956 -53.218)" fill="#fafafa"/>
    <path id="Path_240" data-name="Path 240" d="M456.258,62.528l-.7-1.812a6.959,6.959,0,0,1,2.311-.906,11.309,11.309,0,0,1,2.522-.363,6.663,6.663,0,0,1,2.96.634,4.936,4.936,0,0,1,2.024,1.752,4.562,4.562,0,0,1,.724,2.537V74.489h-1.782l-.3-1.48A7.719,7.719,0,0,1,462,74.323a5.6,5.6,0,0,1-2.356.558,5.088,5.088,0,0,1-3.73-1.269,4.423,4.423,0,0,1-1.284-3.292,4,4,0,0,1,1.45-3.292,5.9,5.9,0,0,1,3.836-1.178h3.776v-.816a3.921,3.921,0,0,0-.771-2.567,2.968,2.968,0,0,0-2.431-.937,8.368,8.368,0,0,0-2.22.257A14.733,14.733,0,0,0,456.258,62.528Zm.574,7.792a2.694,2.694,0,0,0,.694,1.843,2.6,2.6,0,0,0,2.054.785,4.517,4.517,0,0,0,2.25-.6,6.866,6.866,0,0,0,1.888-1.571V67.451h-3.866a2.936,2.936,0,0,0-2.22.831A2.824,2.824,0,0,0,456.832,70.321Z" transform="translate(-326.018 -53.286)" fill="#fafafa"/>
    <path id="Path_241" data-name="Path 241" d="M489.076,74.928H486.69V60.279h1.42l.755,2.356a14.085,14.085,0,0,1,2.386-1.6,5.285,5.285,0,0,1,2.447-.755l.574,1.9a5.743,5.743,0,0,0-2.688.8,10.265,10.265,0,0,0-2.508,1.857Z" transform="translate(-342.949 -53.725)" fill="#fafafa"/>
    <path id="Path_242" data-name="Path 242" d="M518.585,67.542H507.952a6.1,6.1,0,0,0,1.344,3.911,4.848,4.848,0,0,0,3.851,1.435,7.311,7.311,0,0,0,2.16-.3,16.57,16.57,0,0,0,2.341-.967l.756,1.752a14,14,0,0,1-2.477,1.1,8.758,8.758,0,0,1-2.749.408,7.407,7.407,0,0,1-5.709-2.114,7.969,7.969,0,0,1-1.963-5.648,9.39,9.39,0,0,1,.8-3.972,6.207,6.207,0,0,1,2.356-2.718,6.739,6.739,0,0,1,3.67-.982,5.324,5.324,0,0,1,4.727,2.236A10.206,10.206,0,0,1,518.585,67.542Zm-10.572-1.631h8.216q-.514-4.441-3.987-4.441a3.758,3.758,0,0,0-2.945,1.194A5.567,5.567,0,0,0,508.013,65.911Z" transform="translate(-352.885 -53.286)" fill="#fafafa"/>
  </g>
  <rect id="Rectangle_424" data-name="Rectangle 424" width="22" height="22" rx="2" transform="translate(26 0.048)" fill="#1875d1"/>
  <rect id="Rectangle_425" data-name="Rectangle 425" width="22" height="22" rx="2" transform="translate(0 0.048)" fill="#1875d1"/>
  <rect id="Rectangle_426" data-name="Rectangle 426" width="22" height="22" rx="2" transform="translate(26 26.048)" fill="#1875d1"/>
  <rect id="Rectangle_427" data-name="Rectangle 427" width="16.018" height="16.019" rx="2" transform="translate(0 36.721) rotate(-45.001)" fill="#d22e2e"/>
  <g id="Group_31" data-name="Group 31" transform="translate(56.633 31.292)">
    <g id="Group_30" data-name="Group 30">
      <path id="Path_243" data-name="Path 243" d="M190.32,114.464h-3.549V123.8h-1.208v-9.333h-3.443v-.936h8.065Z" transform="translate(-182.119 -113.135)" fill="#fafafa"/>
      <path id="Path_244" data-name="Path 244" d="M207.731,116.509a2.911,2.911,0,0,1,.566,1.88v4.954H207.1v-4.787a2.277,2.277,0,0,0-.3-1.269,1.127,1.127,0,0,0-1.012-.453,2.616,2.616,0,0,0-1.23.378,4.752,4.752,0,0,0-1.216.951v5.2H202.15V112.847l1.194-.151v4.274a4.26,4.26,0,0,1,1.261-.838,3.442,3.442,0,0,1,1.4-.325A2.09,2.09,0,0,1,207.731,116.509Z" transform="translate(-192.696 -112.696)" fill="#fafafa"/>
      <path id="Path_245" data-name="Path 245" d="M219.431,114.856a.773.773,0,0,1-.8-.8.8.8,0,0,1,.226-.581.765.765,0,0,1,.574-.234.825.825,0,0,1,.816.816.759.759,0,0,1-.242.566A.8.8,0,0,1,219.431,114.856Zm-.589,8.79v-7.324h1.209v7.324Z" transform="translate(-201.399 -112.983)" fill="#fafafa"/>
      <path id="Path_246" data-name="Path 246" d="M226.831,126.839h-1.193v-7.324h.891l.2,1.042a4.4,4.4,0,0,1,1.3-.907,3.444,3.444,0,0,1,1.465-.362,2.089,2.089,0,0,1,1.729.7,2.909,2.909,0,0,1,.566,1.88v4.954h-1.193v-4.787a2.272,2.272,0,0,0-.3-1.269,1.126,1.126,0,0,0-1.012-.453,2.618,2.618,0,0,0-1.231.378,4.76,4.76,0,0,0-1.216.951Z" transform="translate(-205.099 -116.177)" fill="#fafafa"/>
      <path id="Path_247" data-name="Path 247" d="M242.886,123.358V112.847l1.193-.151v6.479l3.322-3.337.725.755-2.235,2.22,3.02,4.546h-1.4l-2.416-3.76-1.012,1.012v2.749Z" transform="translate(-214.207 -112.696)" fill="#fafafa"/>
      <path id="Path_248" data-name="Path 248" d="M263.636,117.128l-.015-.906h1.118v-1.148a2.355,2.355,0,0,1,.551-1.639,1.921,1.921,0,0,1,1.5-.612,2.5,2.5,0,0,1,.6.076,2.2,2.2,0,0,1,.5.181l-.272.967a1.476,1.476,0,0,0-.317-.106,1.574,1.574,0,0,0-.348-.045q-1.027,0-1.026,1.253v1.072h1.344l.393.906h-1.736v6.3h-1.194v-6.3Z" transform="translate(-225.156 -112.764)" fill="#fafafa"/>
      <path id="Path_249" data-name="Path 249" d="M280.4,125.22a3.288,3.288,0,0,1-1.276,1.359,3.732,3.732,0,0,1-1.934.491,3.4,3.4,0,0,1-1.842-.491,3.166,3.166,0,0,1-1.2-1.374,4.683,4.683,0,0,1-.415-2.016,4.556,4.556,0,0,1,.446-1.986,3.227,3.227,0,0,1,1.245-1.359,3.622,3.622,0,0,1,1.9-.49,3.282,3.282,0,0,1,2.582,1.049,4.1,4.1,0,0,1,.937,2.832A4.284,4.284,0,0,1,280.4,125.22Zm-1.427.045a3.2,3.2,0,0,0,.649-2.016,3.362,3.362,0,0,0-.6-2.092,2.021,2.021,0,0,0-1.707-.793,2.086,2.086,0,0,0-1.721.793,3.186,3.186,0,0,0-.649,2.016,3.369,3.369,0,0,0,.6,2.084,2.012,2.012,0,0,0,1.706.8A2.088,2.088,0,0,0,278.974,125.265Z" transform="translate(-230.496 -116.211)" fill="#fafafa"/>
      <path id="Path_250" data-name="Path 250" d="M293.039,127.093h-1.193v-7.324h.71l.378,1.178a7.067,7.067,0,0,1,1.193-.8,2.638,2.638,0,0,1,1.223-.377l.287.951a2.875,2.875,0,0,0-1.344.4,5.133,5.133,0,0,0-1.254.929Z" transform="translate(-240.061 -116.431)" fill="#fafafa"/>
      <path id="Path_251" data-name="Path 251" d="M307.027,126.839l-1.662-5.573-1.556,5.573h-1.163l-2.129-7.1,1.087-.453,1.631,5.845,1.54-5.618h1.209l1.631,5.618,1.54-5.618h1.208l-2.159,7.324Z" transform="translate(-244.64 -116.177)" fill="#fafafa"/>
      <path id="Path_252" data-name="Path 252" d="M324.116,120.893l-.347-.906a3.5,3.5,0,0,1,1.155-.453,5.662,5.662,0,0,1,1.261-.181,3.33,3.33,0,0,1,1.48.317,2.462,2.462,0,0,1,1.012.876,2.28,2.28,0,0,1,.362,1.269v5.059h-.891l-.151-.74a3.848,3.848,0,0,1-1.012.657,2.792,2.792,0,0,1-1.178.279,2.544,2.544,0,0,1-1.865-.634,2.212,2.212,0,0,1-.642-1.646,2,2,0,0,1,.725-1.646,2.949,2.949,0,0,1,1.918-.589h1.888v-.408a1.963,1.963,0,0,0-.385-1.284,1.485,1.485,0,0,0-1.216-.468,4.186,4.186,0,0,0-1.11.128A7.428,7.428,0,0,0,324.116,120.893Zm.287,3.9a1.345,1.345,0,0,0,.347.921,1.3,1.3,0,0,0,1.027.393,2.26,2.26,0,0,0,1.126-.3,3.446,3.446,0,0,0,.944-.785v-1.662h-1.934a1.472,1.472,0,0,0-1.11.415A1.415,1.415,0,0,0,324.4,124.789Z" transform="translate(-256.671 -116.211)" fill="#fafafa"/>
      <path id="Path_253" data-name="Path 253" d="M340.525,127.093h-1.193v-7.324h.71l.378,1.178a7.08,7.08,0,0,1,1.193-.8,2.64,2.64,0,0,1,1.224-.377l.287.951a2.873,2.873,0,0,0-1.344.4,5.135,5.135,0,0,0-1.254.929Z" transform="translate(-265.136 -116.431)" fill="#fafafa"/>
      <path id="Path_254" data-name="Path 254" d="M355.158,112.729v10.647h-.725l-.227-.558a3.53,3.53,0,0,1-.982.558,2.868,2.868,0,0,1-1,.2,3.218,3.218,0,0,1-2.56-1.065,4.152,4.152,0,0,1-.929-2.832,4.421,4.421,0,0,1,.43-1.986,3.225,3.225,0,0,1,1.223-1.351,3.508,3.508,0,0,1,1.865-.483,2.623,2.623,0,0,1,.839.151,4.048,4.048,0,0,1,.853.408v-3.549Zm-1.986,9.657a2.421,2.421,0,0,0,.777-.536v-4.334a2.493,2.493,0,0,0-1.721-.649,1.978,1.978,0,0,0-1.676.778,3.315,3.315,0,0,0-.6,2.016,3.484,3.484,0,0,0,.581,2.107,1.96,1.96,0,0,0,1.684.793A2.466,2.466,0,0,0,353.172,122.386Z" transform="translate(-270.103 -112.713)" fill="#fafafa"/>
    </g>
  </g>
</svg>
